<svg width="27" height="13" viewBox="0 0 27 13" fill="none" xmlns="http://www.w3.org/2000/svg">
<path d="M0.0200001 13V0.119999H3.2L6.7 7.26L10.18 0.119999H13.34V13H10.12V5.6L7.58 10.8H5.8L3.24 5.6V13H0.0200001Z" fill="#D92E15"/>
<path d="M15.3716 13V0.119999H21.7116C22.7382 0.119999 23.5849 0.326666 24.2516 0.739999C24.9182 1.14 25.4116 1.68667 25.7316 2.38C26.0649 3.07333 26.2316 3.85333 26.2316 4.72C26.2316 5.6 26.0449 6.38 25.6716 7.06C25.2982 7.74 24.7649 8.27333 24.0716 8.66C23.3916 9.03333 22.5782 9.22 21.6316 9.22H18.5916V13H15.3716ZM18.5916 6.74H20.9116C21.5916 6.74 22.0982 6.55333 22.4316 6.18C22.7782 5.80667 22.9516 5.31333 22.9516 4.7C22.9516 4.03333 22.7916 3.52 22.4716 3.16C22.1649 2.78667 21.6782 2.6 21.0116 2.6H18.5916V6.74Z" fill="#0B2B5E"/>
</svg>
